<svg width="1400" height="163" viewBox="0 0 1400 163" fill="none" xmlns="http://www.w3.org/2000/svg">
<g clip-path="url(#clip0)">
<path d="M1151.2 95.7177C1197.23 93.5515 1276.89 90.8877 1346.22 108.299C1363.92 112.55 1385.13 120.143 1400 130.942V194H0L2.62849e-05 78.3343C35.5922 61.9121 75.507 46.9201 120.798 34.1952C302.019 -16.721 419.651 9.62059 514.11 31.4654C554.304 42.3985 596.449 48.9047 639.7 50.8535C713.588 49.7944 788.43 38.8757 861.793 18.4523C918.624 4.05839 963.362 -6.45621 1002.72 4.62279C1017.15 9.17879 1030.01 16.423 1040.53 25.93C1051.05 35.4369 1059.02 47.015 1063.98 59.9843C1067.77 71.7876 1074.69 82.2595 1084.23 90.5843C1093.73 95.1816 1104.72 97.3766 1116.18 96.9682C1126.78 96.7732 1138.58 96.2424 1151.2 95.7177Z" fill="#FFFC00"/>
</g>
<defs>
<clipPath id="clip0">
<rect width="1400" height="163" fill="white"/>
</clipPath>
</defs>
</svg>
