<svg width="172" height="172" viewBox="0 0 172 172" fill="none" xmlns="http://www.w3.org/2000/svg">
<path d="M85.6904 7.18237C85.4015 7.18237 85.1664 7.4041 85.1529 7.69301V22.2055H84.1115L84.1048 22.2122C83.9167 22.2122 83.7353 22.2861 83.6009 22.4205C83.4598 22.5549 83.3859 22.743 83.3926 22.9311V40.6007H82.3848C82.1967 40.6007 82.0153 40.6746 81.8809 40.809C81.7465 40.9433 81.6726 41.1247 81.6726 41.3129V69.2766H81.5248L81.5181 69.2833C81.33 69.2833 81.1486 69.3573 81.0142 69.4916C80.8731 69.626 80.7992 69.8141 80.8059 70.0023V97.7235H80.2751C79.8787 97.7235 79.563 98.0393 79.5562 98.429V120.736H78.6358C78.4476 120.736 78.2662 120.81 78.1318 120.944C77.9975 121.078 77.9168 121.26 77.9168 121.448V138.567H76.9292C76.7411 138.567 76.5529 138.641 76.4186 138.782C76.2842 138.917 76.2103 139.098 76.2103 139.293V153.536L74.0335 153.53C73.6438 153.53 73.3213 153.846 73.3146 154.242V159.469H71.2586C70.869 159.469 70.5465 159.785 70.5397 160.175V164.098C70.5397 164.293 70.6136 164.475 70.748 164.609C70.8824 164.75 71.0705 164.824 71.2586 164.824H100.741C100.929 164.824 101.117 164.75 101.252 164.609C101.386 164.475 101.46 164.293 101.46 164.098V159.711C101.46 159.523 101.379 159.341 101.245 159.207C101.111 159.073 100.929 158.999 100.741 158.999H98.7456V152.737C98.7456 152.542 98.6717 152.361 98.5373 152.226C98.403 152.092 98.2148 152.011 98.0267 152.018H96.2933V143.458C96.2933 143.263 96.2127 143.082 96.0783 142.948C95.9439 142.813 95.7625 142.739 95.5744 142.739H94.8824V127.884C94.8824 127.696 94.8085 127.515 94.6741 127.38C94.5397 127.246 94.3583 127.172 94.1635 127.172H93.3102V106.19C93.3102 106.002 93.2363 105.82 93.1019 105.686C92.9675 105.551 92.7861 105.478 92.5913 105.478H91.9664V81.2841H91.9732C91.9732 81.0892 91.8925 80.9078 91.7582 80.7735C91.6238 80.6391 91.4424 80.5652 91.2543 80.5652H91.0661V55.1419C91.0594 54.7522 90.7369 54.4364 90.3472 54.4364H87.8345V22.926C87.8345 22.7379 87.7606 22.5497 87.6262 22.4154C87.4918 22.281 87.3104 22.2071 87.1156 22.2071H86.1682V7.69458C86.1548 7.40567 85.9264 7.18395 85.6375 7.18395L85.6904 7.18237ZM84.5147 23.2805H86.8461V40.6009H84.5147V23.2805ZM82.7947 41.6691H86.8461V54.4347H85.8316V54.4414C85.4352 54.4347 85.1127 54.7505 85.1127 55.1469V69.2833H82.7946L82.7947 41.6691ZM86.181 55.503H90.0711V80.5634L87.1552 80.5701V70.0016C87.1552 69.8135 87.0813 69.6321 86.9469 69.491C86.8058 69.3566 86.6244 69.2827 86.4363 69.2827H86.181L86.181 55.503ZM81.9347 70.3447L86.0802 70.3514V97.7235H81.928L81.9347 70.3447ZM87.1552 81.6322H90.9783V105.47L87.1552 105.483V81.6322ZM80.6918 98.7853L86.0869 98.7987V153.543H82.4185V139.649H83.6212V121.461H83.6279C83.6279 121.266 83.554 121.085 83.4129 120.951C83.2785 120.816 83.0971 120.742 82.909 120.742H80.685L80.6918 98.7853ZM87.1552 106.539L92.3085 106.552V127.178H90.1451C89.9569 127.178 89.7756 127.252 89.6412 127.387C89.5068 127.521 89.4329 127.702 89.4329 127.891V143.821H90.1787V152.024H87.1553L87.1552 106.539ZM79.0525 121.804H82.5664V138.567L79.0458 138.58L79.0525 121.804ZM90.5011 128.234H93.8806V142.733L90.4942 142.746L90.5011 128.234ZM77.3526 139.635L81.3502 139.649V153.543H77.3459L77.3526 139.635ZM91.2536 143.808H95.2917V152.011L91.2469 152.025L91.2536 143.808ZM88.2302 153.079L97.7439 153.093V159.005H90.3733V157.877H88.2233L88.2302 153.079ZM74.4702 154.598H83.8361V157.863H82.5528V159.456L74.4635 159.476L74.4702 154.598ZM84.8977 154.598H87.1552V157.863L84.891 157.883L84.8977 154.598ZM83.6144 158.938H89.3052V163.749L83.6077 163.762L83.6144 158.938ZM90.3735 160.074H100.452V163.749L90.3668 163.755L90.3735 160.074ZM71.6892 160.537H82.5467V163.749L71.6824 163.756L71.6892 160.537Z" fill="black"/>
</svg>
