<svg width="156" height="156" viewBox="0 0 156 156" fill="none" xmlns="http://www.w3.org/2000/svg">
<mask id="path-1-inside-1" fill="white">
<path d="M108.579 144.3C109.201 144.3 109.67 143.831 109.67 143.209C109.67 142.588 109.201 142.118 108.579 142.118H104.21V135.098H99.2191V119.498H95.3191V103.898H90.9499V54.9112H88.9206V47.1112H87.0499V42.5897H85.6483V36.3497H81.7483L80.4991 23.8697H79.4083L79.4022 12.7912C79.4022 12.1697 78.933 11.7004 78.3114 11.7004C77.6899 11.7004 77.2207 12.1697 77.2207 12.7912V24.022H76.1299L74.8807 36.502H70.3591V42.742H68.9576V47.2635L67.0807 47.2696V55.0696H65.0515V103.74H60.6822V119.34H56.7822V134.94H51.7915V141.96H47.5807C46.9592 141.96 46.49 142.429 46.49 143.051C46.49 143.672 46.9592 144.142 47.5807 144.142H108.58L108.579 144.3ZM95.4715 121.521H97.19V134.939H95.4715V121.521ZM90.95 105.921H93.1315V111.222H90.95V105.921ZM93.1315 113.568V134.945H84.704L84.71 113.568H93.1315ZM88.7623 57.2493V111.38H84.7038L84.7099 57.2493H88.7623ZM86.7391 49.4493V54.9093H84.0884V49.4493H86.7391ZM78.0006 26.3597H78.3114H78.6222L79.5606 36.3412H77.0621L78.0006 26.3597ZM72.5406 38.6873H83.3021V42.5873H72.5406V38.6873ZM71.1391 44.9273H84.7098V47.2673H81.5898V57.2488H82.3698V103.738H74.2591V47.1088H71.1391V44.9273ZM82.5222 105.92V134.933H74.4115V105.926L82.5222 105.92ZM69.2622 49.4497H71.913V54.9097H69.2622V49.4497ZM67.2391 103.58V57.2497H71.9191V111.229H67.2391V103.58ZM62.8698 105.92H65.0513V111.222H62.8698V105.92ZM62.8698 121.52V113.562H72.0713V134.932H63.0221V121.52L62.8698 121.52ZM58.9698 121.52H60.6883V134.939H58.9698V121.52ZM102.023 141.959H53.9794V137.279H101.87V141.959H102.023Z"/>
</mask>
<path d="M108.579 144.3C109.201 144.3 109.67 143.831 109.67 143.209C109.67 142.588 109.201 142.118 108.579 142.118H104.21V135.098H99.2191V119.498H95.3191V103.898H90.9499V54.9112H88.9206V47.1112H87.0499V42.5897H85.6483V36.3497H81.7483L80.4991 23.8697H79.4083L79.4022 12.7912C79.4022 12.1697 78.933 11.7004 78.3114 11.7004C77.6899 11.7004 77.2207 12.1697 77.2207 12.7912V24.022H76.1299L74.8807 36.502H70.3591V42.742H68.9576V47.2635L67.0807 47.2696V55.0696H65.0515V103.74H60.6822V119.34H56.7822V134.94H51.7915V141.96H47.5807C46.9592 141.96 46.49 142.429 46.49 143.051C46.49 143.672 46.9592 144.142 47.5807 144.142H108.58L108.579 144.3ZM95.4715 121.521H97.19V134.939H95.4715V121.521ZM90.95 105.921H93.1315V111.222H90.95V105.921ZM93.1315 113.568V134.945H84.704L84.71 113.568H93.1315ZM88.7623 57.2493V111.38H84.7038L84.7099 57.2493H88.7623ZM86.7391 49.4493V54.9093H84.0884V49.4493H86.7391ZM78.0006 26.3597H78.3114H78.6222L79.5606 36.3412H77.0621L78.0006 26.3597ZM72.5406 38.6873H83.3021V42.5873H72.5406V38.6873ZM71.1391 44.9273H84.7098V47.2673H81.5898V57.2488H82.3698V103.738H74.2591V47.1088H71.1391V44.9273ZM82.5222 105.92V134.933H74.4115V105.926L82.5222 105.92ZM69.2622 49.4497H71.913V54.9097H69.2622V49.4497ZM67.2391 103.58V57.2497H71.9191V111.229H67.2391V103.58ZM62.8698 105.92H65.0513V111.222H62.8698V105.92ZM62.8698 121.52V113.562H72.0713V134.932H63.0221V121.52L62.8698 121.52ZM58.9698 121.52H60.6883V134.939H58.9698V121.52ZM102.023 141.959H53.9794V137.279H101.87V141.959H102.023Z" fill="black" stroke="#FFFC00" mask="url(#path-1-inside-1)"/>
</svg>
