<svg width="117" height="108" viewBox="0 0 117 108" fill="none" xmlns="http://www.w3.org/2000/svg">
<mask id="path-1-inside-1" fill="white">
<path d="M42.3855 12.7974C41.8828 12.7974 41.4715 12.3861 41.4715 11.8834V5.48486C41.4715 4.98213 41.8828 4.5708 42.3855 4.5708C42.8883 4.5708 43.2996 4.98213 43.2996 5.48486V11.8834C43.2996 12.1256 43.2036 12.3587 43.03 12.5278C42.8609 12.7014 42.6278 12.7974 42.3855 12.7974Z"/>
<path d="M75.6019 99.3224H42.3844C41.8817 99.3224 41.4704 98.9111 41.4704 98.4083V11.8833C41.4658 11.6046 41.5846 11.3349 41.804 11.1567C42.0188 10.9784 42.3022 10.9099 42.5764 10.9693C52.1375 12.8751 60.6611 18.2269 66.5345 26.0061C69.4869 29.9823 71.8498 34.3652 73.5545 39.013C83.1796 64.5611 76.5617 98.2443 76.4977 98.5824C76.4155 99.012 76.0407 99.3224 75.6019 99.3224ZM43.2994 97.4943H74.8438C75.7578 92.4578 80.5018 62.6318 71.8456 39.6518C70.2049 35.1684 67.9243 30.9408 65.0724 27.1106C59.7114 19.9855 51.9965 14.9906 43.2999 13.0156L43.2994 97.4943Z"/>
<path d="M75.6019 99.3224H42.3844C41.8817 99.3224 41.4704 98.9111 41.4704 98.4083L41.4703 39.3047C41.4703 38.8019 41.8817 38.3906 42.3844 38.3906C42.8871 38.3906 43.2985 38.8019 43.2985 39.3047V97.4665H74.8428C75.7569 92.43 80.5008 62.604 71.8447 39.6241C70.204 35.1406 67.9233 30.9131 65.0714 27.0828C59.7059 19.9669 51.9908 14.985 43.2989 13.0159V26.5528C43.2989 27.0556 42.8876 27.4669 42.3849 27.4669C41.8821 27.4669 41.4708 27.0556 41.4708 26.5528V11.8822C41.4662 11.6034 41.5851 11.3338 41.8044 11.1555C42.0192 10.9773 42.3026 10.9087 42.5768 10.9681C52.1379 12.8739 60.6615 18.2258 66.5349 26.005C69.4873 29.9811 71.8502 34.364 73.5549 39.0119C83.18 64.56 76.5622 98.2431 76.4982 98.5812C76.4159 99.0109 76.0411 99.3216 75.6024 99.3216L75.6019 99.3224ZM70.1175 92.924H48.7743C48.2716 92.924 47.8603 92.5126 47.8603 92.0099V30.5392C47.8603 30.0365 48.2716 29.6252 48.7743 29.6252H60.8487C61.0635 29.6709 61.2555 29.7897 61.388 29.9634C63.4675 32.7376 65.2088 35.7494 66.5708 38.9395C74.194 56.4708 72.6035 79.6333 71.2965 90.4008C71.2326 90.9584 71.1686 91.4702 71.0954 91.9638V92.0186C71.0909 92.0415 71.0909 92.0689 71.0954 92.0918C71.0543 92.5808 70.6384 92.9556 70.1448 92.9327L70.1175 92.924ZM49.6612 91.0958H69.35C70.6662 80.9681 72.5583 57.3858 64.8985 39.7808C64.903 39.7534 64.903 39.7259 64.8985 39.6985C63.6553 36.7872 62.0832 34.0267 60.2093 31.472H49.6885L49.6612 91.0958Z"/>
<path d="M72.705 40.2187C72.3211 40.2187 71.9783 39.9811 71.8458 39.6246C70.2051 35.1412 67.9244 30.9136 65.0725 27.0834C64.7663 26.6812 64.8486 26.1053 65.2508 25.7991C65.653 25.4928 66.2288 25.5751 66.5351 25.9773C69.4874 29.9534 71.8504 34.3364 73.5551 38.9842C73.6602 39.2173 73.6602 39.4824 73.5596 39.7154C73.4591 39.9531 73.2671 40.1313 73.0249 40.2182C72.9198 40.2365 72.8101 40.237 72.705 40.2187Z"/>
<path d="M60.6668 31.4531H38.5562C38.0534 31.4531 37.6421 31.0418 37.6421 30.539C37.6421 30.0363 38.0534 29.625 38.5562 29.625H60.6668C61.1696 29.625 61.5809 30.0363 61.5809 30.539C61.5809 31.0418 61.1696 31.4531 60.6668 31.4531Z"/>
<path d="M63.82 36.3519H48.5457C48.0429 36.3519 47.6316 35.9406 47.6316 35.4378C47.6316 34.9351 48.0429 34.5238 48.5457 34.5238H63.82C64.3228 34.5238 64.7341 34.9351 64.7341 35.4378C64.7341 35.9406 64.3228 36.3519 63.82 36.3519Z"/>
<path d="M68.0882 46.745H48.5457C48.0429 46.745 47.6316 46.3336 47.6316 45.8309C47.6316 45.3282 48.0429 44.9168 48.5457 44.9168H68.0882C68.5909 44.9168 69.0022 45.3282 69.0022 45.8309C69.0022 46.3336 68.5909 46.745 68.0882 46.745Z"/>
<path d="M70.3825 57.138H48.5457C48.0429 57.138 47.6316 56.7267 47.6316 56.224C47.6316 55.7212 48.0429 55.3099 48.5457 55.3099H70.3825C70.8853 55.3099 71.2966 55.7212 71.2966 56.224C71.2966 56.7267 70.8853 57.138 70.3825 57.138Z"/>
<path d="M71.3606 67.5218H48.5094C48.0066 67.5218 47.5953 67.1105 47.5953 66.6077C47.5953 66.105 48.0066 65.6937 48.5094 65.6937H71.3606C71.8634 65.6937 72.2747 66.105 72.2747 66.6077C72.2747 67.1105 71.8634 67.5218 71.3606 67.5218Z"/>
<path d="M71.4156 77.9243H48.5643C48.0616 77.9243 47.6503 77.513 47.6503 77.0103C47.6503 76.5075 48.0616 76.0962 48.5643 76.0962H71.4156C71.9183 76.0962 72.3297 76.5075 72.3297 77.0103C72.3297 77.513 71.9183 77.9243 71.4156 77.9243Z"/>
<path d="M70.7125 88.308H48.5468C48.0441 88.308 47.6328 87.8967 47.6328 87.394C47.6328 86.8912 48.0441 86.4799 48.5468 86.4799H70.7125C71.2152 86.4799 71.6265 86.8912 71.6265 87.394C71.6265 87.8967 71.2152 88.308 70.7125 88.308Z"/>
</mask>
<path d="M42.3855 12.7974C41.8828 12.7974 41.4715 12.3861 41.4715 11.8834V5.48486C41.4715 4.98213 41.8828 4.5708 42.3855 4.5708C42.8883 4.5708 43.2996 4.98213 43.2996 5.48486V11.8834C43.2996 12.1256 43.2036 12.3587 43.03 12.5278C42.8609 12.7014 42.6278 12.7974 42.3855 12.7974Z" fill="black"/>
<path d="M75.6019 99.3224H42.3844C41.8817 99.3224 41.4704 98.9111 41.4704 98.4083V11.8833C41.4658 11.6046 41.5846 11.3349 41.804 11.1567C42.0188 10.9784 42.3022 10.9099 42.5764 10.9693C52.1375 12.8751 60.6611 18.2269 66.5345 26.0061C69.4869 29.9823 71.8498 34.3652 73.5545 39.013C83.1796 64.5611 76.5617 98.2443 76.4977 98.5824C76.4155 99.012 76.0407 99.3224 75.6019 99.3224ZM43.2994 97.4943H74.8438C75.7578 92.4578 80.5018 62.6318 71.8456 39.6518C70.2049 35.1684 67.9243 30.9408 65.0724 27.1106C59.7114 19.9855 51.9965 14.9906 43.2999 13.0156L43.2994 97.4943Z" fill="black"/>
<path d="M75.6019 99.3224H42.3844C41.8817 99.3224 41.4704 98.9111 41.4704 98.4083L41.4703 39.3047C41.4703 38.8019 41.8817 38.3906 42.3844 38.3906C42.8871 38.3906 43.2985 38.8019 43.2985 39.3047V97.4665H74.8428C75.7569 92.43 80.5008 62.604 71.8447 39.6241C70.204 35.1406 67.9233 30.9131 65.0714 27.0828C59.7059 19.9669 51.9908 14.985 43.2989 13.0159V26.5528C43.2989 27.0556 42.8876 27.4669 42.3849 27.4669C41.8821 27.4669 41.4708 27.0556 41.4708 26.5528V11.8822C41.4662 11.6034 41.5851 11.3338 41.8044 11.1555C42.0192 10.9773 42.3026 10.9087 42.5768 10.9681C52.1379 12.8739 60.6615 18.2258 66.5349 26.005C69.4873 29.9811 71.8502 34.364 73.5549 39.0119C83.18 64.56 76.5622 98.2431 76.4982 98.5812C76.4159 99.0109 76.0411 99.3216 75.6024 99.3216L75.6019 99.3224ZM70.1175 92.924H48.7743C48.2716 92.924 47.8603 92.5126 47.8603 92.0099V30.5392C47.8603 30.0365 48.2716 29.6252 48.7743 29.6252H60.8487C61.0635 29.6709 61.2555 29.7897 61.388 29.9634C63.4675 32.7376 65.2088 35.7494 66.5708 38.9395C74.194 56.4708 72.6035 79.6333 71.2965 90.4008C71.2326 90.9584 71.1686 91.4702 71.0954 91.9638V92.0186C71.0909 92.0415 71.0909 92.0689 71.0954 92.0918C71.0543 92.5808 70.6384 92.9556 70.1448 92.9327L70.1175 92.924ZM49.6612 91.0958H69.35C70.6662 80.9681 72.5583 57.3858 64.8985 39.7808C64.903 39.7534 64.903 39.7259 64.8985 39.6985C63.6553 36.7872 62.0832 34.0267 60.2093 31.472H49.6885L49.6612 91.0958Z" fill="black"/>
<path d="M72.705 40.2187C72.3211 40.2187 71.9783 39.9811 71.8458 39.6246C70.2051 35.1412 67.9244 30.9136 65.0725 27.0834C64.7663 26.6812 64.8486 26.1053 65.2508 25.7991C65.653 25.4928 66.2288 25.5751 66.5351 25.9773C69.4874 29.9534 71.8504 34.3364 73.5551 38.9842C73.6602 39.2173 73.6602 39.4824 73.5596 39.7154C73.4591 39.9531 73.2671 40.1313 73.0249 40.2182C72.9198 40.2365 72.8101 40.237 72.705 40.2187Z" fill="black"/>
<path d="M60.6668 31.4531H38.5562C38.0534 31.4531 37.6421 31.0418 37.6421 30.539C37.6421 30.0363 38.0534 29.625 38.5562 29.625H60.6668C61.1696 29.625 61.5809 30.0363 61.5809 30.539C61.5809 31.0418 61.1696 31.4531 60.6668 31.4531Z" fill="black"/>
<path d="M63.82 36.3519H48.5457C48.0429 36.3519 47.6316 35.9406 47.6316 35.4378C47.6316 34.9351 48.0429 34.5238 48.5457 34.5238H63.82C64.3228 34.5238 64.7341 34.9351 64.7341 35.4378C64.7341 35.9406 64.3228 36.3519 63.82 36.3519Z" fill="black"/>
<path d="M68.0882 46.745H48.5457C48.0429 46.745 47.6316 46.3336 47.6316 45.8309C47.6316 45.3282 48.0429 44.9168 48.5457 44.9168H68.0882C68.5909 44.9168 69.0022 45.3282 69.0022 45.8309C69.0022 46.3336 68.5909 46.745 68.0882 46.745Z" fill="black"/>
<path d="M70.3825 57.138H48.5457C48.0429 57.138 47.6316 56.7267 47.6316 56.224C47.6316 55.7212 48.0429 55.3099 48.5457 55.3099H70.3825C70.8853 55.3099 71.2966 55.7212 71.2966 56.224C71.2966 56.7267 70.8853 57.138 70.3825 57.138Z" fill="black"/>
<path d="M71.3606 67.5218H48.5094C48.0066 67.5218 47.5953 67.1105 47.5953 66.6077C47.5953 66.105 48.0066 65.6937 48.5094 65.6937H71.3606C71.8634 65.6937 72.2747 66.105 72.2747 66.6077C72.2747 67.1105 71.8634 67.5218 71.3606 67.5218Z" fill="black"/>
<path d="M71.4156 77.9243H48.5643C48.0616 77.9243 47.6503 77.513 47.6503 77.0103C47.6503 76.5075 48.0616 76.0962 48.5643 76.0962H71.4156C71.9183 76.0962 72.3297 76.5075 72.3297 77.0103C72.3297 77.513 71.9183 77.9243 71.4156 77.9243Z" fill="black"/>
<path d="M70.7125 88.308H48.5468C48.0441 88.308 47.6328 87.8967 47.6328 87.394C47.6328 86.8912 48.0441 86.4799 48.5468 86.4799H70.7125C71.2152 86.4799 71.6265 86.8912 71.6265 87.394C71.6265 87.8967 71.2152 88.308 70.7125 88.308Z" fill="black"/>
<path d="M75.6019 99.1974H42.3844V99.4474H75.6019V99.1974ZM42.3844 99.1974C41.9507 99.1974 41.5954 98.842 41.5954 98.4083H41.3454C41.3454 98.9801 41.8127 99.4474 42.3844 99.4474V99.1974ZM43.03 12.5278L42.8555 12.3486L42.8508 12.3534L43.03 12.5278ZM75.6019 99.3224L75.3876 99.1937L75.16 99.5724H75.6019V99.3224ZM41.4704 11.8833H41.7204L41.7204 11.8792L41.4704 11.8833ZM41.804 11.1567L41.9617 11.3507L41.9637 11.3491L41.804 11.1567ZM42.5764 10.9693L42.5235 11.2136L42.5275 11.2145L42.5764 10.9693ZM66.5345 26.0061L66.7352 25.8571L66.734 25.8555L66.5345 26.0061ZM73.5545 39.013L73.3198 39.0991L73.3205 39.1012L73.5545 39.013ZM76.4977 98.5824L76.7433 98.6294L76.7434 98.6289L76.4977 98.5824ZM43.2994 97.4943H43.0494L43.0494 97.7443H43.2994V97.4943ZM74.8438 97.4943V97.7443H75.0525L75.0897 97.5389L74.8438 97.4943ZM71.8456 39.6518L71.6108 39.7377L71.6117 39.74L71.8456 39.6518ZM65.0724 27.1106L65.2729 26.9613L65.2722 26.9603L65.0724 27.1106ZM43.2999 13.0156L43.3552 12.7718L43.0499 12.7025L43.0499 13.0156L43.2999 13.0156ZM41.4703 39.3047H41.2203H41.4703ZM43.2985 97.4665H43.0485V97.7165H43.2985V97.4665ZM74.8428 97.4665V97.7165H75.0515L75.0888 97.5112L74.8428 97.4665ZM71.8447 39.6241L71.6099 39.71L71.6107 39.7122L71.8447 39.6241ZM65.0714 27.0828L65.272 26.9335L65.2711 26.9323L65.0714 27.0828ZM43.2989 13.0159L43.3542 12.7721L43.0489 12.703V13.0159H43.2989ZM41.4708 11.8822H41.7208L41.7208 11.8781L41.4708 11.8822ZM41.8044 11.1555L41.9621 11.3496L41.9641 11.3479L41.8044 11.1555ZM42.5768 10.9681L42.5239 11.2125L42.5279 11.2133L42.5768 10.9681ZM66.5349 26.005L66.7356 25.8559L66.7344 25.8543L66.5349 26.005ZM73.5549 39.0119L73.3202 39.0979L73.321 39.1L73.5549 39.0119ZM76.4982 98.5812L76.7437 98.6283L76.7438 98.6277L76.4982 98.5812ZM75.6024 99.3216V99.0716H75.4609L75.3881 99.1929L75.6024 99.3216ZM70.1175 92.924L70.1937 92.6859L70.1565 92.674H70.1175V92.924ZM60.8487 29.6252L60.9008 29.3807L60.875 29.3752H60.8487V29.6252ZM61.388 29.9634L61.5881 29.8134L61.5868 29.8117L61.388 29.9634ZM66.5708 38.9395L66.3409 39.0377L66.3415 39.0392L66.5708 38.9395ZM71.2965 90.4008L71.0484 90.3707L71.0482 90.3723L71.2965 90.4008ZM71.0954 91.9638L70.8481 91.9272L70.8454 91.9454V91.9638H71.0954ZM71.0954 92.0186L71.3406 92.0677L71.3454 92.0434V92.0186H71.0954ZM71.0954 92.0918L71.3446 92.1127L71.3475 92.0774L71.3406 92.0427L71.0954 92.0918ZM70.1448 92.9327L70.0686 93.1708L70.1001 93.1809L70.1333 93.1824L70.1448 92.9327ZM49.6612 91.0958L49.4112 91.0957L49.4111 91.3458H49.6612V91.0958ZM69.35 91.0958V91.3458H69.5696L69.5979 91.128L69.35 91.0958ZM64.8985 39.7808L64.6519 39.7397L64.6397 39.8127L64.6692 39.8805L64.8985 39.7808ZM64.8985 39.6985L65.1451 39.6574L65.1401 39.6279L65.1284 39.6003L64.8985 39.6985ZM60.2093 31.472L60.4109 31.3242L60.336 31.222H60.2093V31.472ZM49.6885 31.472V31.222H49.4386L49.4385 31.4719L49.6885 31.472ZM72.705 40.2187L72.7478 39.9724L72.7266 39.9687H72.705V40.2187ZM71.8458 39.6246L71.611 39.7105L71.6114 39.7117L71.8458 39.6246ZM65.0725 27.0834L65.2731 26.9341L65.2714 26.9319L65.0725 27.0834ZM66.5351 25.9773L66.7358 25.8283L66.734 25.8258L66.5351 25.9773ZM73.5551 38.9842L73.3204 39.0703L73.3235 39.0787L73.3272 39.087L73.5551 38.9842ZM73.5596 39.7154L73.3301 39.6164L73.3294 39.618L73.5596 39.7154ZM73.0249 40.2182L73.0677 40.4645L73.089 40.4608L73.1093 40.4535L73.0249 40.2182ZM42.3855 12.5474C42.0209 12.5474 41.7215 12.248 41.7215 11.8834H41.2215C41.2215 12.5242 41.7447 13.0474 42.3855 13.0474V12.5474ZM41.7215 11.8834V5.48486H41.2215V11.8834H41.7215ZM41.7215 5.48486C41.7215 5.1202 42.0209 4.8208 42.3855 4.8208V4.3208C41.7447 4.3208 41.2215 4.84406 41.2215 5.48486H41.7215ZM42.3855 4.8208C42.7502 4.8208 43.0496 5.1202 43.0496 5.48486H43.5496C43.5496 4.84406 43.0264 4.3208 42.3855 4.3208V4.8208ZM43.0496 5.48486V11.8834H43.5496V5.48486H43.0496ZM43.0496 11.8834C43.0496 12.0598 42.9797 12.2278 42.8556 12.3487L43.2044 12.7069C43.4275 12.4896 43.5496 12.1914 43.5496 11.8834H43.0496ZM42.8508 12.3534C42.7299 12.4775 42.562 12.5474 42.3855 12.5474V13.0474C42.6936 13.0474 42.9918 12.9254 43.2091 12.7022L42.8508 12.3534ZM41.7204 98.4083V11.8833H41.2204V98.4083H41.7204ZM41.7204 11.8792C41.717 11.6735 41.8046 11.4783 41.9617 11.3507L41.6464 10.9626C41.3647 11.1915 41.2146 11.5356 41.2204 11.8874L41.7204 11.8792ZM41.9637 11.3491C42.1188 11.2203 42.3237 11.1703 42.5235 11.2136L42.6293 10.7249C42.2807 10.6494 41.9188 10.7366 41.6444 10.9643L41.9637 11.3491ZM42.5275 11.2145C52.0285 13.1083 60.4985 18.4264 66.335 26.1568L66.734 25.8555C60.8237 18.0274 52.2465 12.6419 42.6253 10.7241L42.5275 11.2145ZM66.3338 26.1552C69.2718 30.112 71.6233 34.4737 73.3198 39.0991L73.7892 38.9269C72.0763 34.2567 69.7019 29.8525 66.7352 25.8571L66.3338 26.1552ZM73.3205 39.1012C78.1158 51.8294 78.8685 66.5983 78.4097 78.2416C77.9511 89.8804 76.2831 98.3719 76.2521 98.5359L76.7434 98.6289C76.7763 98.4547 78.4493 89.9357 78.9093 78.2613C79.3692 66.5915 78.6183 51.7447 73.7884 38.9249L73.3205 39.1012ZM76.2522 98.5354C76.1925 98.8472 75.9207 99.0724 75.6019 99.0724V99.5724C76.1606 99.5724 76.6385 99.1768 76.7433 98.6294L76.2522 98.5354ZM43.2994 97.7443H74.8438V97.2443H43.2994V97.7443ZM75.0897 97.5389C75.5483 95.0123 76.9649 86.2827 77.1835 75.3068C77.402 64.3342 76.4238 51.0964 72.0796 39.5637L71.6117 39.74C75.9236 51.1872 76.9015 64.3524 76.6836 75.2969C76.4657 86.2381 75.0533 94.9398 74.5978 97.4496L75.0897 97.5389ZM72.0804 39.5659C70.4315 35.0599 68.1393 30.811 65.2729 26.9613L64.8719 27.2599C67.7093 31.0707 69.9784 35.2769 71.6109 39.7377L72.0804 39.5659ZM65.2722 26.9603C59.8757 19.788 52.1095 14.7599 43.3552 12.7718L43.2445 13.2594C51.8834 15.2213 59.5472 20.1831 64.8726 27.2609L65.2722 26.9603ZM43.0499 13.0156L43.0494 97.4943H43.5494L43.5499 13.0156L43.0499 13.0156ZM41.7204 98.4083L41.7203 39.3047H41.2203L41.2204 98.4083H41.7204ZM41.7203 39.3047C41.7203 38.94 42.0197 38.6406 42.3844 38.6406V38.1406C41.7436 38.1406 41.2203 38.6638 41.2203 39.3047H41.7203ZM42.3844 38.6406C42.7491 38.6406 43.0485 38.94 43.0485 39.3047H43.5485C43.5485 38.6638 43.0252 38.1406 42.3844 38.1406V38.6406ZM43.0485 39.3047V97.4665H43.5485V39.3047H43.0485ZM43.2985 97.7165H74.8428V97.2165H43.2985V97.7165ZM75.0888 97.5112C75.5474 94.9845 76.964 86.255 77.1825 75.2791C77.401 64.3065 76.4228 51.0687 72.0786 39.5359L71.6107 39.7122C75.9227 51.1594 76.9006 64.3246 76.6826 75.2691C76.4647 86.2103 75.0523 94.912 74.5968 97.4219L75.0888 97.5112ZM72.0795 39.5382C70.4305 35.0321 68.1383 30.7832 65.272 26.9335L64.8709 27.2321C67.7083 31.0429 69.9775 35.2491 71.6099 39.71L72.0795 39.5382ZM65.2711 26.9323C59.8699 19.7691 52.1037 14.7543 43.3542 12.7721L43.2437 13.2597C51.878 15.2158 59.542 20.1647 64.8718 27.2333L65.2711 26.9323ZM43.0489 13.0159V26.5528H43.5489V13.0159H43.0489ZM43.0489 26.5528C43.0489 26.9175 42.7495 27.2169 42.3849 27.2169V27.7169C43.0257 27.7169 43.5489 27.1936 43.5489 26.5528H43.0489ZM42.3849 27.2169C42.0202 27.2169 41.7208 26.9175 41.7208 26.5528H41.2208C41.2208 27.1936 41.744 27.7169 42.3849 27.7169V27.2169ZM41.7208 26.5528V11.8822H41.2208V26.5528H41.7208ZM41.7208 11.8781C41.7174 11.6724 41.805 11.4771 41.9621 11.3495L41.6468 10.9615C41.3651 11.1904 41.2151 11.5344 41.2208 11.8863L41.7208 11.8781ZM41.9641 11.3479C42.1192 11.2191 42.3241 11.1692 42.5239 11.2125L42.6298 10.7238C42.2811 10.6483 41.9192 10.7354 41.6448 10.9631L41.9641 11.3479ZM42.5279 11.2133C52.0289 13.1071 60.4989 18.4253 66.3354 26.1556L66.7344 25.8543C60.8241 18.0262 52.247 12.6408 42.6257 10.723L42.5279 11.2133ZM66.3342 26.154C69.2722 30.1108 71.6237 34.4725 73.3202 39.0979L73.7896 38.9258C72.0767 34.2555 69.7024 29.8514 66.7356 25.8559L66.3342 26.154ZM73.321 39.1C78.1163 51.8282 78.8689 66.5971 78.4101 78.2405C77.9515 89.8792 76.2836 98.3708 76.2525 98.5348L76.7438 98.6277C76.7768 98.4536 78.4497 89.9345 78.9098 78.2601C79.3696 66.5903 78.6187 51.7436 73.7889 38.9237L73.321 39.1ZM76.2526 98.5342C76.1929 98.8462 75.921 99.0716 75.6024 99.0716V99.5716C76.1612 99.5716 76.6389 99.1755 76.7437 98.6283L76.2526 98.5342ZM75.3881 99.1929L75.3876 99.1937L75.8162 99.4512L75.8167 99.4504L75.3881 99.1929ZM70.1175 92.674H48.7743V93.174H70.1175V92.674ZM48.7743 92.674C48.4097 92.674 48.1103 92.3745 48.1103 92.0099H47.6103C47.6103 92.6507 48.1335 93.174 48.7743 93.174V92.674ZM48.1103 92.0099V30.5392H47.6103V92.0099H48.1103ZM48.1103 30.5392C48.1103 30.1746 48.4097 29.8752 48.7743 29.8752V29.3752C48.1335 29.3752 47.6103 29.8984 47.6103 30.5392H48.1103ZM48.7743 29.8752H60.8487V29.3752H48.7743V29.8752ZM60.7967 29.8697C60.9551 29.9034 61.0942 29.9905 61.1893 30.1151L61.5868 29.8117C61.4168 29.589 61.172 29.4384 60.9008 29.3807L60.7967 29.8697ZM61.188 30.1133C63.2555 32.8716 64.9868 35.8661 66.3409 39.0377L66.8007 38.8413C65.4308 35.6327 63.6794 32.6035 61.5881 29.8134L61.188 30.1133ZM66.3415 39.0392C73.9356 56.5033 72.3551 79.6055 71.0484 90.3707L71.5447 90.4309C72.852 79.661 74.4525 56.4383 66.8001 38.8398L66.3415 39.0392ZM71.0482 90.3723C70.9843 90.9285 70.9207 91.4374 70.8481 91.9272L71.3427 92.0004C71.4164 91.5031 71.4808 90.9883 71.5449 90.4293L71.0482 90.3723ZM70.8454 91.9638V92.0186H71.3454V91.9638H70.8454ZM70.8503 91.9696C70.8393 92.0248 70.8393 92.0856 70.8503 92.1408L71.3406 92.0427C71.3419 92.0493 71.342 92.0534 71.342 92.0552C71.342 92.057 71.3419 92.0611 71.3406 92.0677L70.8503 91.9696ZM70.8463 92.0708C70.8162 92.429 70.5126 92.6995 70.1564 92.683L70.1333 93.1824C70.7642 93.2116 71.2924 92.7326 71.3446 92.1127L70.8463 92.0708ZM70.2211 92.6946L70.1937 92.6859L70.0412 93.162L70.0686 93.1708L70.2211 92.6946ZM49.6612 91.3458H69.35V90.8458H49.6612V91.3458ZM69.5979 91.128C70.9143 80.9989 72.8175 57.3547 65.1277 39.681L64.6692 39.8805C72.2992 57.4168 70.4181 80.9373 69.102 91.0636L69.5979 91.128ZM65.1451 39.8219C65.1542 39.7673 65.1542 39.7121 65.1451 39.6574L64.6519 39.7396V39.7397L65.1451 39.8219ZM65.1284 39.6003C63.8778 36.6715 62.2962 33.8943 60.4109 31.3242L60.0077 31.6199C61.8703 34.1591 63.4329 36.9029 64.6685 39.7967L65.1284 39.6003ZM60.2093 31.222H49.6885V31.722H60.2093V31.222ZM49.4385 31.4719L49.4112 91.0957L49.9112 91.0959L49.9385 31.4721L49.4385 31.4719ZM72.705 39.9687C72.4247 39.9687 72.1759 39.7953 72.0801 39.5375L71.6114 39.7117C71.7807 40.1669 72.2175 40.4687 72.705 40.4687V39.9687ZM72.0805 39.5387C70.4316 35.0327 68.1394 30.7838 65.273 26.9341L64.872 27.2327C67.7094 31.0434 69.9786 35.2496 71.611 39.7105L72.0805 39.5387ZM65.2714 26.9319C65.0501 26.6413 65.1082 26.2219 65.4022 25.998L65.0993 25.6002C64.589 25.9888 64.4825 26.7211 64.8736 27.2348L65.2714 26.9319ZM65.4022 25.998C65.6929 25.7767 66.1123 25.8347 66.3362 26.1288L66.734 25.8258C66.3454 25.3155 65.6131 25.209 65.0993 25.6002L65.4022 25.998ZM66.3344 26.1263C69.2724 30.0831 71.6239 34.4449 73.3204 39.0703L73.7898 38.8981C72.0769 34.2279 69.7025 29.8237 66.7358 25.8283L66.3344 26.1263ZM73.3272 39.087C73.4029 39.2548 73.4033 39.4466 73.3301 39.6164L73.7892 39.8145C73.917 39.5181 73.9175 39.1797 73.783 38.8814L73.3272 39.087ZM73.3294 39.618C73.2567 39.7899 73.1185 39.919 72.9405 39.9828L73.1093 40.4535C73.4157 40.3437 73.6615 40.1163 73.7899 39.8129L73.3294 39.618ZM72.9821 39.9719C72.9044 39.9854 72.8237 39.9856 72.7478 39.9724L72.6622 40.465C72.7965 40.4884 72.9352 40.4875 73.0677 40.4645L72.9821 39.9719ZM60.6668 31.2031H38.5562V31.7031H60.6668V31.2031ZM38.5562 31.2031C38.1915 31.2031 37.8921 30.9037 37.8921 30.539H37.3921C37.3921 31.1798 37.9154 31.7031 38.5562 31.7031V31.2031ZM37.8921 30.539C37.8921 30.1744 38.1915 29.875 38.5562 29.875V29.375C37.9154 29.375 37.3921 29.8982 37.3921 30.539H37.8921ZM38.5562 29.875H60.6668V29.375H38.5562V29.875ZM60.6668 29.875C61.0315 29.875 61.3309 30.1744 61.3309 30.539H61.8309C61.8309 29.8982 61.3076 29.375 60.6668 29.375V29.875ZM61.3309 30.539C61.3309 30.9037 61.0315 31.2031 60.6668 31.2031V31.7031C61.3076 31.7031 61.8309 31.1798 61.8309 30.539H61.3309ZM63.82 36.1019H48.5457V36.6019H63.82V36.1019ZM48.5457 36.1019C48.181 36.1019 47.8816 35.8025 47.8816 35.4378H47.3816C47.3816 36.0786 47.9049 36.6019 48.5457 36.6019V36.1019ZM47.8816 35.4378C47.8816 35.0732 48.181 34.7738 48.5457 34.7738V34.2738C47.9049 34.2738 47.3816 34.797 47.3816 35.4378H47.8816ZM48.5457 34.7738H63.82V34.2738H48.5457V34.7738ZM63.82 34.7738C64.1847 34.7738 64.4841 35.0732 64.4841 35.4378H64.9841C64.9841 34.797 64.4608 34.2738 63.82 34.2738V34.7738ZM64.4841 35.4378C64.4841 35.8025 64.1847 36.1019 63.82 36.1019V36.6019C64.4608 36.6019 64.9841 36.0786 64.9841 35.4378H64.4841ZM68.0882 46.495H48.5457V46.995H68.0882V46.495ZM48.5457 46.495C48.181 46.495 47.8816 46.1956 47.8816 45.8309H47.3816C47.3816 46.4717 47.9049 46.995 48.5457 46.995V46.495ZM47.8816 45.8309C47.8816 45.4662 48.181 45.1668 48.5457 45.1668V44.6668C47.9049 44.6668 47.3816 45.1901 47.3816 45.8309H47.8816ZM48.5457 45.1668H68.0882V44.6668H48.5457V45.1668ZM68.0882 45.1668C68.4528 45.1668 68.7522 45.4662 68.7522 45.8309H69.2522C69.2522 45.1901 68.729 44.6668 68.0882 44.6668V45.1668ZM68.7522 45.8309C68.7522 46.1956 68.4528 46.495 68.0882 46.495V46.995C68.729 46.995 69.2522 46.4717 69.2522 45.8309H68.7522ZM70.3825 56.888H48.5457V57.388H70.3825V56.888ZM48.5457 56.888C48.181 56.888 47.8816 56.5886 47.8816 56.224H47.3816C47.3816 56.8648 47.9049 57.388 48.5457 57.388V56.888ZM47.8816 56.224C47.8816 55.8593 48.181 55.5599 48.5457 55.5599V55.0599C47.9049 55.0599 47.3816 55.5831 47.3816 56.224H47.8816ZM48.5457 55.5599H70.3825V55.0599H48.5457V55.5599ZM70.3825 55.5599C70.7472 55.5599 71.0466 55.8593 71.0466 56.224H71.5466C71.5466 55.5831 71.0233 55.0599 70.3825 55.0599V55.5599ZM71.0466 56.224C71.0466 56.5886 70.7472 56.888 70.3825 56.888V57.388C71.0233 57.388 71.5466 56.8648 71.5466 56.224H71.0466ZM71.3606 67.2718H48.5094V67.7718H71.3606V67.2718ZM48.5094 67.2718C48.1447 67.2718 47.8453 66.9724 47.8453 66.6077H47.3453C47.3453 67.2485 47.8686 67.7718 48.5094 67.7718V67.2718ZM47.8453 66.6077C47.8453 66.2431 48.1447 65.9437 48.5094 65.9437V65.4437C47.8686 65.4437 47.3453 65.9669 47.3453 66.6077H47.8453ZM48.5094 65.9437H71.3606V65.4437H48.5094V65.9437ZM71.3606 65.9437C71.7253 65.9437 72.0247 66.2431 72.0247 66.6077H72.5247C72.5247 65.9669 72.0014 65.4437 71.3606 65.4437V65.9437ZM72.0247 66.6077C72.0247 66.9724 71.7253 67.2718 71.3606 67.2718V67.7718C72.0014 67.7718 72.5247 67.2485 72.5247 66.6077H72.0247ZM71.4156 77.6743H48.5643V78.1743H71.4156V77.6743ZM48.5643 77.6743C48.1997 77.6743 47.9003 77.3749 47.9003 77.0103H47.4003C47.4003 77.6511 47.9235 78.1743 48.5643 78.1743V77.6743ZM47.9003 77.0103C47.9003 76.6456 48.1997 76.3462 48.5643 76.3462V75.8462C47.9235 75.8462 47.4003 76.3695 47.4003 77.0103H47.9003ZM48.5643 76.3462H71.4156V75.8462H48.5643V76.3462ZM71.4156 76.3462C71.7803 76.3462 72.0797 76.6456 72.0797 77.0103H72.5797C72.5797 76.3695 72.0564 75.8462 71.4156 75.8462V76.3462ZM72.0797 77.0103C72.0797 77.3749 71.7803 77.6743 71.4156 77.6743V78.1743C72.0564 78.1743 72.5797 77.6511 72.5797 77.0103H72.0797ZM70.7125 88.058H48.5468V88.558H70.7125V88.058ZM48.5468 88.058C48.1822 88.058 47.8828 87.7587 47.8828 87.394H47.3828C47.3828 88.0348 47.906 88.558 48.5468 88.558V88.058ZM47.8828 87.394C47.8828 87.0293 48.1822 86.7299 48.5468 86.7299V86.2299C47.906 86.2299 47.3828 86.7532 47.3828 87.394H47.8828ZM48.5468 86.7299H70.7125V86.2299H48.5468V86.7299ZM70.7125 86.7299C71.0771 86.7299 71.3765 87.0293 71.3765 87.394H71.8765C71.8765 86.7532 71.3533 86.2299 70.7125 86.2299V86.7299ZM71.3765 87.394C71.3765 87.7587 71.0771 88.058 70.7125 88.058V88.558C71.3533 88.558 71.8765 88.0348 71.8765 87.394H71.3765Z" fill="#FFFC00" mask="url(#path-1-inside-1)"/>
</svg>
