<svg width="140" height="140" viewBox="0 0 140 140" fill="none" xmlns="http://www.w3.org/2000/svg">
<path d="M68.523 6L67.3636 24.2826H64.23L63.6995 31.4412H57.5581V43.4233H62.7972L61.8183 51.7631H48.5731L59.9317 68.4483L54.0637 134.335H85.9305L80.0626 68.4483L91.4212 51.7631H78.1705L77.1916 43.4233H82.4361V31.4412H76.2892L75.7697 24.2826H72.6306L71.4658 6H68.523ZM65.2964 25.4474H74.6644L75.1073 31.4411H64.8589L65.2964 25.4474ZM58.7121 32.606H81.2549V42.2529H58.7177L58.7121 32.606ZM63.9566 43.4178H76.0098L76.9887 51.7576L62.9887 51.7631L63.9566 43.4178ZM50.7659 52.928H89.2057L79.4276 67.2724H60.5388L50.7659 52.928ZM61.0909 68.4428H69.2175L60.1448 79.0796L61.0909 68.4428ZM70.7596 68.4428H78.8807L79.8268 79.0796L70.7596 68.4428ZM69.9885 69.3342L79.4604 80.4412L60.5058 80.4467L69.9885 69.3342ZM59.9206 81.606H69.1792L58.9745 92.2099L59.9206 81.606ZM70.7924 81.606H80.051L80.9971 92.2099L70.7924 81.606ZM69.9885 82.4482L80.4392 93.3092L59.5316 93.3146L69.9885 82.4482ZM58.7776 94.4796H69.1628L57.7769 105.69L58.7776 94.4796ZM70.8144 94.4796H81.1996L82.2003 105.69L70.8144 94.4796ZM69.9886 95.2944L81.5495 106.686L58.4173 106.691L69.9886 95.2944ZM57.58 107.851H69.0918L56.6231 118.635L57.58 107.851ZM70.8745 107.851L82.3918 107.856L83.3488 118.641L70.8745 107.851ZM69.9831 108.627L83.1245 119.986L56.8367 119.991L69.9831 108.627ZM56.3933 121.151H68.419L55.3924 132.394L56.3933 121.151ZM71.5525 121.151H83.5728L84.5735 132.394L71.5525 121.151ZM69.9884 121.337L83.6766 133.155L56.2842 133.16L69.9884 121.337Z" fill="black"/>
</svg>
