<svg width="177" height="34" viewBox="0 0 177 34" fill="none" xmlns="http://www.w3.org/2000/svg">
<path d="M32.076 25.1781C26.7299 22.5933 25.8742 18.5969 25.8389 18.2969C25.7948 17.9352 25.7418 17.6529 26.1388 17.2912C26.5182 16.9384 28.212 15.8885 28.6884 15.5621C29.4647 15.0152 29.8088 14.477 29.5529 13.8065C29.3765 13.3478 28.9442 13.1714 28.4943 13.1714C28.3532 13.1714 28.212 13.189 28.0709 13.2155C27.2151 13.4007 26.3859 13.8242 25.9095 13.9477C25.8477 13.9653 25.7948 13.9742 25.733 13.9742C25.4772 13.9742 25.3801 13.8595 25.4066 13.5507C25.4684 12.6156 25.5919 10.7982 25.4507 9.0956C25.2478 6.75776 24.4891 5.59326 23.5981 4.56991C23.1658 4.07588 21.1544 1.93213 17.2727 1.93213C13.391 1.93213 11.3708 4.06705 10.9385 4.56109C10.0387 5.58444 9.28881 6.74894 9.0859 9.08677C8.93593 10.7894 9.06826 12.6068 9.12119 13.5419C9.13883 13.833 9.05061 13.9653 8.79478 13.9653C8.73302 13.9653 8.68009 13.9565 8.61834 13.9389C8.14195 13.8242 7.31268 13.3919 6.45695 13.2066C6.31579 13.1714 6.17464 13.1625 6.03349 13.1625C5.57475 13.1625 5.15129 13.339 4.97485 13.7977C4.71901 14.4682 5.06307 15.0063 5.83941 15.5533C6.30697 15.8797 8.0008 16.9295 8.38896 17.2824C8.78595 17.6441 8.73302 17.9264 8.68891 18.2881C8.65362 18.5881 7.79789 22.5844 2.45176 25.1693C2.13416 25.3193 1.60484 25.6457 2.5488 26.1574C4.02207 26.969 5.00132 26.8808 5.76883 27.3748C6.41284 27.7894 6.03349 28.6893 6.50106 29.0157C7.08331 29.4127 8.78595 28.9892 11.0003 29.7214C12.8529 30.3302 13.9821 32.0593 17.2639 32.0593C20.5457 32.0593 21.7102 30.3302 23.5275 29.7214C25.733 28.9892 27.4445 29.4215 28.0267 29.0157C28.4943 28.6893 28.115 27.7894 28.759 27.3748C29.5177 26.8808 30.5057 26.969 31.979 26.1574C32.923 25.6545 32.3936 25.3281 32.076 25.1781Z" fill="white"/>
<path d="M34.4051 24.8692C34.1669 24.2164 33.7081 23.8635 33.1876 23.5812C33.0906 23.5283 33.0024 23.4754 32.923 23.4401C32.7642 23.3607 32.6054 23.2813 32.4466 23.2019C30.8233 22.3373 29.553 21.261 28.6796 19.973C28.4326 19.6113 28.212 19.2231 28.0356 18.8262C27.9562 18.6144 27.965 18.4909 28.0179 18.3762C28.0709 18.288 28.1414 18.2174 28.2297 18.1557C28.512 17.9704 28.7943 17.7852 28.9884 17.6616C29.3324 17.4323 29.6147 17.2558 29.7912 17.1323C30.4528 16.6648 30.9204 16.1707 31.2115 15.6149C31.6261 14.8386 31.6791 13.9299 31.3615 13.1095C30.9204 11.945 29.8264 11.2304 28.4943 11.2304C28.212 11.2304 27.9385 11.2569 27.6562 11.3186C27.5857 11.3363 27.5063 11.3539 27.4357 11.3716C27.4445 10.5776 27.4269 9.73949 27.3563 8.91904C27.1093 6.01661 26.0859 4.49922 25.0273 3.29061C24.348 2.53191 23.554 1.88791 22.663 1.38505C21.075 0.467566 19.2489 0 17.2639 0C15.279 0 13.4616 0.467566 11.856 1.38505C10.965 1.88791 10.171 2.53191 9.49173 3.29061C8.43309 4.49922 7.41856 6.02543 7.16272 8.91904C7.09214 9.74831 7.0745 10.5864 7.08332 11.3716C7.01275 11.3539 6.94217 11.3363 6.86277 11.3186C6.58929 11.2569 6.30699 11.2304 6.0335 11.2304C4.70138 11.2304 3.60745 11.9538 3.16635 13.1095C2.84876 13.9299 2.90169 14.8386 3.31633 15.6149C3.60745 16.1707 4.07502 16.6648 4.73667 17.1323C4.91311 17.2558 5.18659 17.4323 5.53947 17.6616C5.72473 17.7852 5.99822 17.9616 6.2717 18.138C6.36874 18.1998 6.44814 18.2792 6.50989 18.3762C6.56282 18.4909 6.57165 18.6144 6.48343 18.8438C6.30699 19.232 6.09526 19.6113 5.84824 19.9642C4.99251 21.2169 3.75743 22.2844 2.18711 23.1401C1.35784 23.5812 0.493286 23.8723 0.122762 24.8692C-0.15072 25.6191 0.02572 26.466 0.722658 27.1894C0.978496 27.4541 1.27844 27.6834 1.60486 27.8599C2.28415 28.2304 3.00756 28.5215 3.76625 28.7244C3.92505 28.7686 4.0662 28.8303 4.19853 28.9185C4.45437 29.1391 4.41908 29.4743 4.75431 29.9683C4.92193 30.2242 5.14248 30.4447 5.3895 30.6212C6.10408 31.1152 6.90688 31.1417 7.7538 31.177C8.52131 31.2034 9.38587 31.2387 10.3828 31.5651C10.7974 31.6975 11.2208 31.9621 11.7149 32.2709C12.9058 33.0031 14.5291 34 17.2551 34C19.9811 34 21.6132 32.9943 22.813 32.2621C23.307 31.9621 23.7304 31.6975 24.1274 31.5651C25.1155 31.2387 25.9889 31.2034 26.7564 31.177C27.6033 31.1417 28.4061 31.1152 29.1207 30.6212C29.4206 30.4094 29.6677 30.1448 29.8441 29.8272C30.0911 29.4126 30.0823 29.1214 30.3117 28.9185C30.4352 28.8303 30.5763 28.7686 30.7175 28.7333C31.4762 28.5304 32.2172 28.2392 32.9053 27.8599C33.2494 27.6746 33.567 27.4276 33.8316 27.1365L33.8405 27.1277C34.5109 26.4307 34.6697 25.6015 34.4051 24.8692ZM31.9878 26.1749C30.5146 26.9865 29.5265 26.8983 28.7678 27.3923C28.115 27.807 28.5031 28.7068 28.0356 29.0332C27.4533 29.4302 25.7419 29.0067 23.5364 29.739C21.7102 30.3389 20.5545 32.0768 17.2727 32.0768C13.991 32.0768 12.8617 30.3477 11.0091 29.739C8.80361 29.0067 7.09214 29.439 6.50989 29.0332C6.04233 28.7068 6.42167 27.807 5.77767 27.3923C5.01015 26.8983 4.03091 26.9865 2.55763 26.1749C1.61368 25.6544 2.15182 25.3368 2.46059 25.1868C7.80673 22.602 8.66246 18.6056 8.69775 18.3057C8.74186 17.944 8.79479 17.6616 8.3978 17.2999C8.01845 16.9471 6.32463 15.8972 5.84824 15.5708C5.07191 15.0239 4.72785 14.4857 4.98369 13.8153C5.16013 13.3565 5.5924 13.1801 6.04233 13.1801C6.18348 13.1801 6.32463 13.1977 6.46578 13.2242C7.32152 13.4094 8.15079 13.8329 8.62717 13.9564C8.68893 13.9741 8.74186 13.9829 8.80361 13.9829C9.05945 13.9829 9.14767 13.8505 9.13003 13.5594C9.0771 12.6243 8.94477 10.807 9.09474 9.10431C9.29765 6.76648 10.0475 5.60197 10.9474 4.57862C11.3796 4.08459 13.3999 1.94966 17.2727 1.94966C21.1456 1.94966 23.1658 4.07577 23.5981 4.5698C24.498 5.59315 25.2478 6.75765 25.4507 9.09548C25.6007 10.7981 25.4684 12.6155 25.4066 13.5506C25.389 13.8594 25.4772 13.9741 25.733 13.9741C25.7948 13.9741 25.8477 13.9652 25.9095 13.9476C26.3859 13.8329 27.2151 13.4006 28.0709 13.2154C28.212 13.1801 28.3532 13.1713 28.4943 13.1713C28.9442 13.1713 29.3765 13.3477 29.553 13.8064C29.8088 14.4769 29.4647 15.015 28.6884 15.562C28.2208 15.8884 26.527 16.9382 26.1388 17.2911C25.7419 17.6528 25.7948 17.9351 25.8389 18.2968C25.8742 18.5968 26.7299 22.5931 32.0761 25.178C32.3937 25.328 32.923 25.6544 31.9878 26.1749Z" fill="black"/>
<g clip-path="url(#clip0)">
<path d="M74.9627 22.2861C75.4701 22.2861 75.7662 22.4129 75.893 22.6667C75.893 23.1741 75.7662 23.4279 75.4701 23.4279C75.3433 23.4279 75.2587 23.3856 75.1741 23.2587C75.0896 23.1318 74.9627 23.0473 74.8781 22.9204C74.7935 22.7935 74.6667 22.7512 74.5398 22.7512C74.2861 22.7512 74.0323 23.005 73.7786 23.5124C73.5249 24.0199 73.2711 24.6965 73.1443 25.5846V25.6269C73.1443 25.6692 73.1443 25.6692 73.1866 25.6692H74.4975C74.5398 25.6692 74.5398 25.7114 74.5398 25.796C74.5398 25.9229 74.4975 26.0498 74.4129 26.1766H73.102C73.0597 26.1766 73.0597 26.2189 73.0174 26.2612L72.3831 29.6443C72.2139 30.7015 71.8756 31.505 71.4104 32.0547C70.9453 32.6045 70.4378 32.9005 69.8881 32.9005C69.6343 32.9005 69.4229 32.8582 69.2537 32.7736C69.1269 32.6891 69.0423 32.5622 69 32.4353C69 32.2662 69.0423 32.097 69.1269 31.9701C69.2114 31.8433 69.3383 31.7587 69.4652 31.7587C69.5498 31.7587 69.592 31.801 69.6766 31.8856C69.7189 31.9701 69.8035 32.0547 69.8458 32.1393C69.8881 32.2239 69.9726 32.3085 70.0572 32.393C70.1418 32.4776 70.2264 32.5199 70.3532 32.5199C70.4801 32.5199 70.6493 32.4353 70.7761 32.2662C70.903 32.097 71.0299 31.8433 71.1567 31.5896C71.2413 31.3358 71.3259 31.0821 71.4104 30.8284C71.495 30.5746 71.5373 30.3632 71.5796 30.194L72.2139 26.2189C72.2139 26.1766 72.2139 26.1766 72.1716 26.1766H71.4527C71.4527 26.1766 71.4104 26.1766 71.4104 26.1343C71.4104 26.0498 71.4527 25.9652 71.5796 25.8383C71.7065 25.7114 71.8333 25.6269 71.9602 25.6269H72.2985C72.3408 25.6269 72.3408 25.5846 72.3831 25.5423C72.5522 24.6119 72.8483 23.8507 73.3557 23.2164C73.8632 22.5821 74.4129 22.2861 74.9627 22.2861Z" fill="#282829"/>
<path d="M79.4876 25.2886C79.9527 25.2886 80.291 25.4577 80.5448 25.7537C80.7985 26.0498 80.9254 26.5149 80.9254 27.0647C80.9254 27.8682 80.6294 28.5871 80.0796 29.306C79.5299 30.0249 78.9801 30.3632 78.3881 30.3632C77.9229 30.3632 77.5846 30.2363 77.3308 29.898C77.0771 29.602 76.9502 29.1791 76.9502 28.6294C76.9502 27.8259 77.204 27.0647 77.7537 26.3881C78.3458 25.6692 78.8955 25.2886 79.4876 25.2886ZM79.3184 25.7537C78.9378 25.7537 78.5995 26.0498 78.2612 26.6418C77.9652 27.2338 77.796 27.8259 77.796 28.4602C77.796 28.8831 77.8806 29.2637 78.0075 29.4751C78.1343 29.7289 78.3458 29.8557 78.5572 29.8557C78.9378 29.8557 79.2761 29.5597 79.5721 28.9677C79.8682 28.3756 79.995 27.7836 79.995 27.1493C79.995 26.6841 79.9527 26.3458 79.8259 26.1343C79.699 25.8806 79.5299 25.7537 79.3184 25.7537Z" fill="#282829"/>
<path d="M85.6194 25.2886C85.7463 25.2886 85.8308 25.3308 85.9154 25.4577C86 25.5846 86 25.7114 86 25.8806C86 26.0498 85.9577 26.2612 85.9154 26.4726L85.7463 27.4453C85.9577 26.9801 86.2114 26.5149 86.592 26.0075C86.9726 25.5 87.2687 25.2463 87.5647 25.2463C87.8184 25.2463 88.0299 25.3731 88.199 25.6269C88.199 26.1343 88.0721 26.3881 87.7761 26.3881C87.7338 26.3881 87.6493 26.3458 87.5647 26.2612C87.4801 26.1766 87.3955 26.1343 87.3109 26.1343C87.0995 26.1343 86.7612 26.4726 86.3383 27.1493C85.9154 27.8259 85.6194 28.4602 85.4925 29.0945L85.2811 30.2786C85.1542 30.3209 85.0274 30.3209 84.9005 30.3209C84.7736 30.3209 84.6045 30.3209 84.4776 30.2786L85.1542 26.7687C85.1965 26.5149 85.1965 26.3458 85.1965 26.3035C85.1965 26.1343 85.1542 26.0075 85.0697 26.0075C85.0274 26.0075 84.9851 26.0075 84.9428 26.0497C84.9005 26.092 84.8159 26.1343 84.7736 26.1766C84.7313 26.2189 84.6468 26.2612 84.6045 26.3458C84.5622 26.3881 84.4776 26.4726 84.4353 26.5572C84.4353 26.5572 84.393 26.5149 84.3507 26.4303C84.3085 26.3458 84.3085 26.3035 84.3085 26.2612C84.393 26.092 84.6045 25.9229 84.9005 25.6692C85.1542 25.4154 85.408 25.2886 85.6194 25.2886Z" fill="#282829"/>
<path d="M69.4229 7.31592C69.4229 5.32836 70.0995 3.63682 71.4104 2.199C72.7214 0.761194 74.3706 0.0845771 76.3159 0.0845771C77.2886 0.0845771 78.9801 0.380597 81.306 1.01493C81.3483 2.62189 81.3905 3.46766 81.3905 3.63682C81.3905 3.84826 81.2637 3.93284 80.9677 3.93284C80.8408 3.93284 80.7562 3.89055 80.7139 3.84826C80.3333 1.94527 78.8955 0.972637 76.4428 0.972637C75.0473 0.972637 73.8632 1.56468 72.9328 2.74876C72.0025 3.93284 71.5373 5.37065 71.5373 7.06219C71.5373 8.62687 72.0448 10.0647 73.0597 11.3756C74.0746 12.6866 75.3856 13.3209 76.9502 13.3209C78.1766 13.3209 79.107 13.1517 79.699 12.8557C79.7836 12.8134 79.8259 12.7289 79.8259 12.5597V10.699C79.8259 9.81094 79.7836 9.17662 79.6567 8.8806C79.6144 8.75373 79.3607 8.62687 78.9801 8.54229C78.5995 8.45771 78.2612 8.41542 78.0498 8.41542C78.0075 8.41542 77.9652 8.33084 77.9652 8.16169C77.9652 7.99254 78.0075 7.86567 78.0498 7.82338C79.8259 7.90796 80.7562 7.90796 80.7985 7.90796C80.9254 7.90796 81.6866 7.86567 83.0821 7.82338C83.1244 7.90796 83.1244 7.99254 83.1244 8.1194C83.1244 8.33085 83.0821 8.41542 83.0398 8.41542C82.9552 8.41542 82.7438 8.45771 82.4478 8.54229C82.1517 8.62687 81.9403 8.71144 81.8134 8.79602C81.6866 8.8806 81.602 9.34577 81.602 10.1915C81.602 10.4876 81.602 10.7836 81.6443 11.1642C81.6866 11.5025 81.6866 11.7139 81.6866 11.7139C81.6866 11.9677 81.7289 12.2214 81.8134 12.4328C81.898 12.6866 81.9403 12.8134 81.9403 12.8557C81.9403 12.9826 81.7711 13.1095 81.4328 13.2363C81.3905 13.2363 81.2637 13.3209 81.0099 13.4055C80.7562 13.4901 80.5871 13.5746 80.5448 13.5746C80.4602 13.6169 80.3333 13.6592 80.0796 13.7438C79.8259 13.8284 79.6567 13.8706 79.4876 13.9129C79.3607 13.9552 79.1493 13.9975 78.8532 14.0398C78.5995 14.0821 78.3035 14.1244 78.092 14.1667C77.8383 14.1667 77.5423 14.209 77.2463 14.209C76.908 14.2512 76.5697 14.2512 76.1891 14.2512C74.3284 14.2512 72.7637 13.5746 71.495 12.2214C70.0572 10.8259 69.4229 9.21891 69.4229 7.31592Z" fill="#282829"/>
<path d="M90.2289 3.08706C90.2289 2.19901 90.1866 1.60697 90.102 1.22637C90.0597 1.0995 89.8483 1.01493 89.51 0.930348C89.1294 0.845771 88.8756 0.803483 88.6642 0.803483C88.6219 0.803483 88.5796 0.718905 88.5796 0.549751C88.5796 0.380597 88.6219 0.253731 88.6642 0.211443C90.2711 0.29602 91.1169 0.29602 91.2015 0.29602C91.4129 0.29602 92.2164 0.253731 93.6542 0.211443C93.6965 0.29602 93.6965 0.380597 93.6965 0.507463C93.6965 0.718906 93.6542 0.803483 93.6119 0.803483C93.4851 0.803483 93.2313 0.845771 92.8507 0.930348C92.4701 1.05721 92.2587 1.14179 92.2587 1.22637C92.1318 1.73383 92.0896 2.36816 92.0896 3.17164V11.1642C92.0896 11.9677 92.1318 12.6443 92.2587 13.1095C92.301 13.194 92.4701 13.3209 92.8507 13.4055C93.2313 13.4901 93.4851 13.5323 93.6119 13.5323C93.6542 13.5323 93.6965 13.6169 93.6965 13.8284C93.6965 13.9552 93.6965 14.0398 93.6542 14.1244C92.2587 14.0398 91.4552 14.0398 91.2015 14.0398C91.1169 14.0398 90.2711 14.0821 88.6642 14.1244C88.6219 14.0821 88.5796 13.9552 88.5796 13.8284C88.5796 13.6169 88.6219 13.5323 88.6642 13.5323C88.8333 13.5323 89.1294 13.4901 89.4677 13.4055C89.806 13.3209 90.0174 13.2363 90.0597 13.1095C90.1443 12.7289 90.1866 12.0945 90.1866 11.2488V3.08706H90.2289Z" fill="#282829"/>
<path d="M102.197 0.29602C102.831 0.29602 103.93 0.253731 105.453 0.211443C107.017 0.169154 108.159 0.126866 108.963 0.126866C109.005 0.549751 109.132 1.05721 109.301 1.73383C109.47 2.41045 109.555 2.83333 109.597 3.00249C109.512 3.08706 109.386 3.08706 109.216 3.08706C109.047 3.08706 108.92 3.04478 108.92 2.9602C108.709 2.199 108.413 1.69154 108.032 1.4801C107.652 1.26866 107.144 1.14179 106.468 1.14179H105.072C103.888 1.14179 103.254 1.22637 103.211 1.39552C103.127 1.73383 103.127 2.32587 103.127 3.17164V6.59701C103.127 6.68159 103.423 6.72388 104.015 6.72388H105.114C106.045 6.72388 106.637 6.6393 106.848 6.51244C107.06 6.38557 107.229 6.00497 107.398 5.37065C107.398 5.28607 107.44 5.24378 107.44 5.20149C107.44 5.11692 107.567 5.07463 107.736 5.07463C107.905 5.07463 108.032 5.11692 108.075 5.1592V9.21891C108.032 9.30348 107.905 9.30348 107.736 9.30348C107.567 9.30348 107.44 9.26119 107.398 9.13433C107.313 8.75373 107.229 8.45771 107.144 8.28856C107.06 8.1194 107.017 7.99254 106.975 7.95025C106.933 7.90796 106.891 7.86567 106.806 7.82338C106.637 7.69652 105.876 7.65423 104.565 7.65423C103.592 7.65423 103.085 7.73881 103.085 7.82338V11.1219C103.085 11.9254 103.127 12.602 103.254 13.0672C103.296 13.1517 103.465 13.2786 103.846 13.3632C104.226 13.4478 104.48 13.49 104.607 13.49C104.649 13.49 104.692 13.5746 104.692 13.7861C104.692 13.9129 104.692 13.9975 104.649 14.0821C103.254 13.9975 102.45 13.9975 102.197 13.9975C102.112 13.9975 101.308 14.0398 99.6592 14.0821C99.6169 14.0398 99.5746 13.9129 99.5746 13.7861C99.5746 13.5746 99.6169 13.49 99.6592 13.49C99.8284 13.49 100.124 13.4478 100.463 13.3632C100.801 13.2786 101.012 13.194 101.055 13.0672C101.139 12.6866 101.182 12.0522 101.182 11.1642V3.12935C101.182 2.28358 101.139 1.69154 101.055 1.31095C101.012 1.18408 100.801 1.0995 100.42 1.01493C100.04 0.930348 99.7861 0.88806 99.5746 0.88806C99.5323 0.88806 99.49 0.803483 99.49 0.634328C99.49 0.465174 99.5323 0.338308 99.5746 0.29602C100.42 0.29602 101.266 0.29602 102.197 0.29602Z" fill="#282829"/>
<path d="M119.323 0.253731C120.296 0.29602 121.057 0.29602 121.692 0.29602C122.326 0.29602 123.087 0.29602 124.06 0.253731C125.032 0.211443 125.794 0.211443 126.301 0.211443C126.639 0.211443 127.147 0.126866 127.739 0L128.119 3.00249C128.035 3.08706 127.866 3.12935 127.612 3.12935C127.485 3.12935 127.401 3.08706 127.401 3.04478C127.189 2.24129 126.978 1.73383 126.682 1.52239C126.386 1.31095 125.836 1.18408 125.075 1.18408C123.595 1.18408 122.833 1.26866 122.749 1.4801C122.622 1.94527 122.58 2.62189 122.58 3.59453V11.1642C122.58 11.9677 122.622 12.6443 122.749 13.1095C122.791 13.194 122.96 13.3209 123.341 13.4055C123.721 13.4901 123.975 13.5323 124.102 13.5323C124.144 13.5323 124.187 13.6169 124.187 13.8284C124.187 13.9552 124.187 14.0398 124.144 14.1244C122.749 14.0398 121.945 14.0398 121.692 14.0398C121.607 14.0398 120.761 14.0821 119.154 14.1244C119.112 14.0821 119.07 13.9552 119.07 13.8284C119.07 13.6169 119.112 13.5323 119.154 13.5323C119.323 13.5323 119.619 13.4901 119.958 13.4055C120.296 13.3209 120.507 13.2363 120.55 13.1095C120.634 12.7289 120.677 12.0945 120.677 11.2488V3.63682C120.677 2.41045 120.634 1.69154 120.507 1.4801C120.381 1.26866 119.619 1.18408 118.224 1.18408C117.42 1.18408 116.871 1.31095 116.617 1.52239C116.321 1.73383 116.109 2.24129 115.898 3.04478C115.898 3.12935 115.813 3.12935 115.687 3.12935C115.433 3.12935 115.264 3.08706 115.179 3.00249L115.56 0C116.194 0.169154 116.659 0.211443 116.998 0.211443C117.59 0.211443 118.351 0.253731 119.323 0.253731Z" fill="#282829"/>
<path d="M134.251 3.80597C134.251 2.74876 134.674 1.8607 135.478 1.14179C136.323 0.465174 137.254 0.0845771 138.353 0.0845771C138.649 0.0845771 138.945 0.0845771 139.241 0.126866C139.495 0.169154 139.749 0.211443 139.918 0.253731C140.087 0.29602 140.341 0.380597 140.679 0.465174C141.017 0.549751 141.313 0.634328 141.567 0.676617C141.736 1.43781 141.821 2.41045 141.821 3.6791C141.821 3.76368 141.736 3.80597 141.609 3.80597C141.271 3.80597 141.102 3.72139 141.06 3.59453C140.975 2.9602 140.679 2.36816 140.172 1.81841C139.664 1.22637 138.988 0.930348 138.269 0.930348C137.423 0.930348 136.831 1.14179 136.493 1.56468C136.154 1.98756 135.985 2.49502 135.985 3.12935C135.985 3.38308 136.027 3.63682 136.112 3.89055C136.197 4.14428 136.323 4.35572 136.408 4.48259C136.493 4.65174 136.704 4.8209 136.958 5.03234C137.211 5.24378 137.423 5.37065 137.507 5.45522C137.634 5.5398 137.846 5.70896 138.226 5.9204C138.565 6.13184 138.818 6.30099 138.903 6.34328C138.988 6.38557 139.199 6.55473 139.622 6.80846C140.045 7.06219 140.341 7.23134 140.468 7.35821C140.637 7.44279 140.848 7.65423 141.187 7.90796C141.525 8.16169 141.736 8.41542 141.905 8.62687C142.032 8.83831 142.201 9.09204 142.328 9.43035C142.455 9.72637 142.54 10.0647 142.54 10.403C142.54 11.5025 142.117 12.4328 141.229 13.1517C140.341 13.8706 139.326 14.2512 138.142 14.2512C137.803 14.2512 137.465 14.209 137.085 14.1667C136.704 14.1244 136.408 14.0821 136.154 14.0398C135.9 13.9975 135.604 13.9129 135.182 13.8284C134.801 13.7438 134.547 13.6592 134.378 13.6592C134.04 11.9254 133.871 10.8259 133.871 10.3184C133.871 10.2338 133.998 10.1915 134.209 10.1915C134.463 10.1915 134.632 10.2338 134.716 10.3607C135.182 12.3905 136.366 13.3632 138.184 13.3632C138.903 13.3632 139.495 13.1517 139.96 12.7289C140.468 12.306 140.679 11.7139 140.679 10.9527C140.679 10.6567 140.637 10.403 140.552 10.1915C140.468 9.93781 140.383 9.76866 140.299 9.5995C140.214 9.43035 140.045 9.26119 139.833 9.09204C139.622 8.92289 139.41 8.79602 139.284 8.71144C139.157 8.62687 138.945 8.5 138.607 8.33085C138.269 8.16169 138.057 8.03483 137.93 7.95025C137.507 7.69652 137.254 7.52736 137.085 7.44279C136.915 7.35821 136.662 7.18905 136.281 6.93532C135.9 6.68159 135.647 6.47015 135.478 6.30099C135.308 6.13184 135.097 5.87811 134.886 5.62438C134.674 5.37065 134.505 5.07463 134.42 4.73632C134.294 4.4403 134.251 4.14428 134.251 3.80597Z" fill="#282829"/>
<path d="M94.0771 27.0224C94.0771 25.0348 94.7537 23.3433 96.0647 21.9055C97.3756 20.4677 99.0249 19.791 100.97 19.791C101.943 19.791 103.634 20.0871 105.96 20.7214C106.002 22.3284 106.045 23.1741 106.045 23.3433C106.045 23.5547 105.918 23.6393 105.622 23.6393C105.495 23.6393 105.41 23.597 105.368 23.5547C104.988 21.6517 103.55 20.6791 101.097 20.6791C99.7015 20.6791 98.5174 21.2711 97.5871 22.4552C96.6567 23.6393 96.1915 25.0771 96.1915 26.7687C96.1915 28.3333 96.699 29.7711 97.7139 31.0821C98.7289 32.393 100.04 33.0274 101.604 33.0274C102.831 33.0274 103.761 32.8582 104.353 32.5622C104.438 32.5199 104.48 32.4353 104.48 32.2662V30.4055C104.48 29.5174 104.438 28.8831 104.311 28.5871C104.269 28.4602 104.015 28.3333 103.634 28.2488C103.254 28.1642 102.915 28.1219 102.704 28.1219C102.662 28.1219 102.619 28.0373 102.619 27.8682C102.619 27.699 102.662 27.5721 102.704 27.5299C104.48 27.6144 105.41 27.6144 105.453 27.6144C105.58 27.6144 106.341 27.5721 107.736 27.5299C107.779 27.6144 107.779 27.699 107.779 27.8259C107.779 28.0373 107.736 28.1219 107.694 28.1219C107.609 28.1219 107.398 28.1642 107.102 28.2488C106.806 28.3333 106.595 28.4179 106.468 28.5025C106.341 28.5871 106.256 29.0522 106.256 29.898C106.256 30.194 106.256 30.49 106.299 30.8706C106.299 31.209 106.341 31.4204 106.341 31.4204C106.341 31.6741 106.383 31.9279 106.468 32.1393C106.552 32.393 106.595 32.5199 106.595 32.5622C106.595 32.6891 106.425 32.8159 106.087 32.9428C106.045 32.9428 105.918 33.0274 105.664 33.1119C105.41 33.1965 105.241 33.2811 105.199 33.2811C105.114 33.3234 104.988 33.3657 104.734 33.4502C104.48 33.5348 104.311 33.5771 104.142 33.6194C104.015 33.6617 103.803 33.704 103.507 33.7463C103.254 33.7886 102.958 33.8308 102.746 33.8731C102.493 33.8731 102.197 33.9154 101.9 33.9154C101.562 33.9577 101.224 33.9577 100.843 33.9577C98.9826 33.9577 97.4179 33.2811 96.1493 31.9279C94.7114 30.5323 94.0771 28.8831 94.0771 27.0224Z" fill="#282829"/>
<path d="M115.306 31.9279C113.995 30.5323 113.361 28.8831 113.361 26.8955C113.361 24.908 113.995 23.2587 115.306 21.8632C116.617 20.4677 118.182 19.791 120.042 19.791C121.903 19.791 123.468 20.4677 124.779 21.8632C126.09 23.2587 126.766 24.9502 126.766 26.8955C126.766 28.8408 126.09 30.5323 124.779 31.9279C123.468 33.3234 121.903 34 120.042 34C118.224 34 116.617 33.2811 115.306 31.9279ZM119.746 20.6791C118.435 20.6791 117.378 21.2711 116.617 22.4129C115.856 23.5547 115.475 24.908 115.475 26.4303C115.475 27.5299 115.644 28.5871 116.025 29.602C116.405 30.5746 116.955 31.4204 117.716 32.097C118.478 32.7736 119.408 33.1119 120.423 33.1119C121.311 33.1119 122.114 32.8159 122.791 32.2239C123.468 31.6318 123.975 30.9129 124.271 30.0672C124.567 29.2214 124.736 28.291 124.736 27.3184C124.736 26.2189 124.567 25.1617 124.187 24.1468C123.806 23.1741 123.256 22.3284 122.495 21.6517C121.692 21.0174 120.761 20.6791 119.746 20.6791Z" fill="#282829"/>
<path d="M134.886 31.9279C133.575 30.5323 132.94 28.8831 132.94 26.8955C132.94 24.908 133.575 23.2587 134.886 21.8632C136.197 20.4677 137.761 19.791 139.622 19.791C141.483 19.791 143.047 20.4677 144.358 21.8632C145.669 23.2587 146.346 24.9502 146.346 26.8955C146.346 28.8408 145.669 30.5323 144.358 31.9279C143.047 33.3234 141.483 34 139.622 34C137.803 34 136.197 33.2811 134.886 31.9279ZM139.326 20.6791C138.015 20.6791 136.958 21.2711 136.197 22.4129C135.435 23.5547 135.055 24.908 135.055 26.4303C135.055 27.5299 135.224 28.5871 135.604 29.602C135.985 30.5746 136.535 31.4204 137.296 32.097C138.057 32.7736 138.988 33.1119 140.002 33.1119C140.891 33.1119 141.694 32.8159 142.371 32.2239C143.047 31.6318 143.555 30.9129 143.851 30.0672C144.147 29.2214 144.316 28.291 144.316 27.3184C144.316 26.2189 144.147 25.1617 143.766 24.1468C143.386 23.1741 142.836 22.3284 142.075 21.6517C141.271 21.0174 140.341 20.6791 139.326 20.6791Z" fill="#282829"/>
<path d="M154.888 20.0025C155.438 20.0025 156.114 20.0025 156.918 19.9602C157.721 19.9602 158.271 19.9179 158.525 19.9179C160.808 19.9179 162.585 20.5945 163.853 21.9478C165.122 23.301 165.756 24.8657 165.756 26.6841C165.756 28.7139 165.122 30.4055 163.811 31.7587C162.542 33.1119 160.766 33.7886 158.483 33.7886C158.313 33.7886 157.806 33.7886 157.002 33.7463C156.157 33.704 155.48 33.704 154.93 33.704L152.393 33.7463C152.351 33.704 152.351 33.6194 152.351 33.4502C152.351 33.2388 152.393 33.1542 152.393 33.1542C152.562 33.1542 152.858 33.1119 153.197 33.0274C153.535 32.9428 153.746 32.8159 153.831 32.6891C153.915 32.5199 153.958 31.8433 153.958 30.7015V22.8358C153.958 21.99 153.915 21.398 153.831 21.0174C153.789 20.8905 153.577 20.806 153.197 20.7214C152.816 20.6368 152.562 20.5945 152.351 20.5945C152.308 20.5945 152.266 20.5099 152.266 20.3408C152.266 20.1716 152.308 20.0448 152.351 20.0025C153.112 20.0025 153.958 20.0025 154.888 20.0025ZM155.818 22.5398V30.8706C155.818 31.4627 155.903 31.9701 156.114 32.4776C156.157 32.6045 156.537 32.7313 157.256 32.7736C157.933 32.8582 158.483 32.8582 158.863 32.8582C162.077 32.8582 163.684 30.7861 163.684 26.6418C163.684 25.0348 163.261 23.6816 162.415 22.5821C161.57 21.4826 160.343 20.8905 158.694 20.8905H158.609C157.087 20.8905 156.241 21.0174 156.072 21.2289C155.903 21.4826 155.818 21.9055 155.818 22.5398Z" fill="#282829"/>
</g>
<line x1="52.875" y1="3.82475e-08" x2="52.875" y2="34" stroke="black" stroke-width="1.75"/>
<defs>
<clipPath id="clip0">
<rect width="96.7562" height="34" fill="white" transform="translate(69)"/>
</clipPath>
</defs>
</svg>
